<svg xmlns="http://www.w3.org/2000/svg" width="1500" height="1500" viewBox="0 0 1500 1500"><rect width="100%" height="100%" fill="#d5ad59"/><rect width="1400" height="2" x="50" y="50" stroke="#000"/><rect width="1400" height="2" x="50" y="150" stroke="#000"/><rect width="1400" height="2" x="50" y="250" stroke="#000"/><rect width="1400" height="2" x="50" y="350" stroke="#000"/><rect width="1400" height="2" x="50" y="450" stroke="#000"/><rect width="1400" height="2" x="50" y="550" stroke="#000"/><rect width="1400" height="2" x="50" y="650" stroke="#000"/><rect width="1400" height="2" x="50" y="750" stroke="#000"/><rect width="1400" height="2" x="50" y="850" stroke="#000"/><rect width="1400" height="2" x="50" y="950" stroke="#000"/><rect width="1400" height="2" x="50" y="1050" stroke="#000"/><rect width="1400" height="2" x="50" y="1150" stroke="#000"/><rect width="1400" height="2" x="50" y="1250" stroke="#000"/><rect width="1400" height="2" x="50" y="1350" stroke="#000"/><rect width="1400" height="2" x="50" y="1450" stroke="#000"/><rect width="2" height="1400" x="50" y="50" stroke="#000"/><rect width="2" height="1400" x="150" y="50" stroke="#000"/><rect width="2" height="1400" x="250" y="50" stroke="#000"/><rect width="2" height="1400" x="350" y="50" stroke="#000"/><rect width="2" height="1400" x="450" y="50" stroke="#000"/><rect width="2" height="1400" x="550" y="50" stroke="#000"/><rect width="2" height="1400" x="650" y="50" stroke="#000"/><rect width="2" height="1400" x="750" y="50" stroke="#000"/><rect width="2" height="1400" x="850" y="50" stroke="#000"/><rect width="2" height="1400" x="950" y="50" stroke="#000"/><rect width="2" height="1400" x="1050" y="50" stroke="#000"/><rect width="2" height="1400" x="1150" y="50" stroke="#000"/><rect width="2" height="1400" x="1250" y="50" stroke="#000"/><rect width="2" height="1400" x="1350" y="50" stroke="#000"/><rect width="2" height="1400" x="1450" y="50" stroke="#000"/><circle cx="351" cy="351" r="10"/><circle cx="751" cy="351" r="10"/><circle cx="1151" cy="351" r="10"/><circle cx="351" cy="751" r="10"/><circle cx="751" cy="751" r="10"/><circle cx="1151" cy="751" r="10"/><circle cx="351" cy="1151" r="10"/><circle cx="751" cy="1151" r="10"/><circle cx="1151" cy="1151" r="10"/></svg>